<svg xmlns="http://www.w3.org/2000/svg" width="1920" height="116" viewBox="0 0 1920 116">
  <g id="Group_67" data-name="Group 67" transform="translate(0 -5641)">
    <path id="Path_15" data-name="Path 15" d="M2,0H1251a2,2,0,0,1,2,2V114a2,2,0,0,1-2,2H2a2,2,0,0,1-2-2V2A2,2,0,0,1,2,0Z" transform="translate(0 5641)" fill="#ef3c49"/>
    <path id="Path_12" data-name="Path 12" d="M2.33,0H665.17a2.184,2.184,0,0,1,2.33,2V114a2.184,2.184,0,0,1-2.33,2H2.33A2.184,2.184,0,0,1,0,114V2A2.184,2.184,0,0,1,2.33,0Z" transform="translate(1252.5 5641)"/>
  </g>
</svg>
